<?xml version="1.0" encoding="UTF-8" standalone="no"?>
<svg
   xmlns:dc="http://purl.org/dc/elements/1.1/"
   xmlns:cc="http://creativecommons.org/ns#"
   xmlns:rdf="http://www.w3.org/1999/02/22-rdf-syntax-ns#"
   xmlns:svg="http://www.w3.org/2000/svg"
   xmlns="http://www.w3.org/2000/svg"
   xmlns:sodipodi="http://sodipodi.sourceforge.net/DTD/sodipodi-0.dtd"
   xmlns:inkscape="http://www.inkscape.org/namespaces/inkscape"
   viewBox="0 0 100 100"
   id="vector"
   version="1.1"
   sodipodi:docname="logo.svg"
   width="100"
   height="100"
   inkscape:version="0.92.4 (5da689c313, 2019-01-14)">
  <metadata
     id="metadata4547">
    <rdf:RDF>
      <cc:Work
         rdf:about="">
        <dc:format>image/svg+xml</dc:format>
        <dc:type
           rdf:resource="http://purl.org/dc/dcmitype/StillImage" />
        <dc:title></dc:title>
      </cc:Work>
    </rdf:RDF>
  </metadata>
  <defs
     id="defs4545" />
  <sodipodi:namedview
     pagecolor="#757575"
     bordercolor="#fe0808"
     borderopacity="1"
     objecttolerance="10"
     gridtolerance="10"
     guidetolerance="10"
     inkscape:pageopacity="0"
     inkscape:pageshadow="2"
     inkscape:window-width="1920"
     inkscape:window-height="1057"
     id="namedview4543"
     showgrid="false"
     inkscape:zoom="8.2222222"
     inkscape:cx="41.359206"
     inkscape:cy="55.291608"
     inkscape:window-x="-8"
     inkscape:window-y="-8"
     inkscape:window-maximized="1"
     inkscape:current-layer="g4618" />
  <g
     id="g4618"
     transform="translate(-3.117188,9.3535158)">
    <path
       sodipodi:nodetypes="cccccccc"
       inkscape:connector-curvature="0"
       id="path5092"
       d="m 53.117368,21.242278 c -5.808133,-4.78e-4 -10.516977,4.707491 -10.51758,10.515624 0.0053,4.744303 3.186527,8.897604 7.76563,10.138672 l -4.85156,18.152344 c 5.06901,0 10.13802,0 15.20703,0 L 55.871278,41.90634 c 4.581051,-1.243494 7.761264,-5.401617 7.76172,-10.148438 C 63.632396,25.95053 58.92474,21.242877 53.117368,21.242278 Z"
       style="opacity:1;fill:#000000;fill-opacity:1;stroke:none;stroke-width:0;stroke-miterlimit:4;stroke-dasharray:none" />
    <path
       style="opacity:1;fill:#fdb812;fill-opacity:1;stroke:none;stroke-width:0;stroke-miterlimit:4;stroke-dasharray:none"
       d="m 53.117188,3.1464844 a 37.49977,37.499769 0 0 0 -15.300782,3.296875 13.329918,13.329918 0 0 1 3.570313,7.1425786 29.999815,29.999814 0 0 1 11.878906,-2.490235 29.999815,29.999814 0 0 1 12.126953,2.582031 13.329918,13.329918 0 0 1 3.41211,-7.0429684 37.49977,37.499769 0 0 0 -15.6875,-3.4882812 z"
       id="path4626" />
    <path
       style="opacity:1;fill:#fdb812;fill-opacity:1;stroke:none;stroke-width:0;stroke-miterlimit:4;stroke-dasharray:none"
       d="m 18.966797,25.269531 a 37.49977,37.499769 0 0 0 -3.349609,15.376953 37.49977,37.499769 0 0 0 3.335937,15.38086 13.329918,13.329918 0 0 1 6.611328,-3.482422 29.999815,29.999814 0 0 1 -2.298828,-11.449219 29.999815,29.999814 0 0 1 2.652344,-12.273437 13.329918,13.329918 0 0 1 -6.951172,-3.552735 z"
       id="path4624" />
    <path
       style="opacity:1;fill:#8e8e8e;fill-opacity:1;stroke:none;stroke-width:0;stroke-miterlimit:4;stroke-dasharray:none"
       d="m 87.447266,25.611328 a 13.329918,13.329918 0 0 1 -6.828125,3.251953 29.999815,29.999814 0 0 1 2.648437,12.232422 29.999815,29.999814 0 0 1 -2.285156,11.455078 13.329918,13.329918 0 0 1 6.357422,3.314453 37.49977,37.499769 0 0 0 3.277344,-15.21875 37.49977,37.499769 0 0 0 -3.169922,-15.035156 z"
       id="path4622" />
    <path
       style="opacity:1;fill:#8e8e8e;fill-opacity:1;stroke:none;stroke-width:0;stroke-miterlimit:4;stroke-dasharray:none"
       d="m 65.269531,68.550781 a 29.999815,29.999814 0 0 1 -12.003906,2.544922 29.999815,29.999814 0 0 1 -12.041016,-2.541015 13.329918,13.329918 0 0 1 -3.402343,6.28125 37.49977,37.499769 0 0 0 15.294922,3.310546 37.49977,37.499769 0 0 0 15.470703,-3.380859 13.329918,13.329918 0 0 1 -3.31836,-6.214844 z"
       id="path832" />
    <circle
       r="10.663935"
       cy="15.676435"
       cx="28.06966"
       id="path842"
       style="opacity:1;fill:#fdb812;fill-opacity:1;stroke:none;stroke-width:0;stroke-miterlimit:4;stroke-dasharray:none" />
    <circle
       r="10.663935"
       cy="65.55722"
       cx="28.078833"
       id="path842-8"
       style="opacity:1;fill:#8e8e8e;fill-opacity:1;stroke:none;stroke-width:0;stroke-miterlimit:4;stroke-dasharray:none" />
    <circle
       r="10.663935"
       cy="15.673284"
       cx="78.388512"
       id="path842-2"
       style="opacity:1;fill:#8e8e8e;fill-opacity:1;stroke:none;stroke-width:0;stroke-miterlimit:4;stroke-dasharray:none" />
    <circle
       r="10.663935"
       cy="65.561447"
       cx="78.087517"
       id="path842-8-1"
       style="opacity:1;fill:#8e8e8e;fill-opacity:1;stroke:none;stroke-width:0;stroke-miterlimit:4;stroke-dasharray:none" />
  </g>
</svg>
